<svg xmlns="http://www.w3.org/2000/svg" viewBox="0 0 141.73 141.73"><defs><style>.cls-1{fill:#5db4e0;}</style></defs><g id="Spinner"><path class="cls-1" d="M115,61.86s-6.13,12.59-17.71,6.69c-6.56-3.34-10.58-2.64-12.84-1.41a14.69,14.69,0,0,0-.92-2.56c.56-3.25,2.13-8.7,6.23-7.17,5.73,2.14,6,14,16.53,8.68S115.53,53,115.53,53s-4.88,6.84-10.32-2.43S84.06,50.14,82,58.74a8.7,8.7,0,0,1-1.32,1.86,14.92,14.92,0,0,0-1.6-1.36c-.79-2.2-1.63-7.64,6-13.32C95,38.55,96,39.29,95.59,34.1s-9.37-6.64-9.37-6.64,7.27,12-4,18.52c-7.12,4.15-8.27,8.36-8.15,10.9a13.86,13.86,0,0,0-2.32-.38c-2.44-2.11-6.66-6.52-3.08-9.29,4.83-3.75,15.08,2.25,16.08-9.5S78.53,23,78.53,23s3.25,7.75-7.5,7.5-11.5,17.75-5.25,24a7.29,7.29,0,0,1,1,2.56,14.49,14.49,0,0,0-1.53.53C62.82,57,58,54.87,56.92,45.71,55.53,33.46,56.68,33,52,30.71s-10.45,4.75-10.45,4.75,14-.25,14,12.75c0,8,2.89,11.17,5.11,12.43a14.46,14.46,0,0,0-2.72,3.87c-3.23.76-8.59,1.37-8.83-2.89C48.76,55.51,59.52,50.49,50.42,43s-15.68-3.25-15.68-3.25,8.22,1.73,1.9,10.43,8.07,19.56,16.76,18c0,0,2.91.19,3.1,1.23,0,.07,0,.1.08.11h0c-1.95,1.85-6.09,4.07-13.68,1.11C31.41,66.13,31.5,64.88,27.32,68s-.66,11.46-.66,11.46S33,66.94,44.46,73c6.36,3.34,10.35,2.81,12.65,1.67a14.54,14.54,0,0,0,2.06,4.2c-.9,3.19-2.83,7.48-6.46,5.84-5.57-2.53-5.06-14.39-15.91-9.79S26.67,87.34,26.67,87.34s5.34-6.5,10.14,3.13,21.06,1.88,23.67-6.57A8.36,8.36,0,0,1,62,82.08c.9,2.15,2,7.55-5.28,13.62-9.49,7.87-10.54,7.19-9.85,12.35s9.7,6.14,9.7,6.14-7.88-11.58,3-18.7c6.75-4.42,7.78-8.61,7.59-11.15a14.38,14.38,0,0,0,3,.44c2.13,1.8,7.58,7,3.57,10-4.91,3.65-15-2.56-16.28,9.16s5.94,14.88,5.94,14.88-3.09-7.82,7.65-7.34,11.87-17.5,5.76-23.88c0,0-1.45-2.53-.68-3.27.18-.17-.11-.27-.65-.32a12.82,12.82,0,0,0,1.82-.79c2.46.67,6.94,3.09,7.8,11.89,1.19,12.27,0,12.76,4.7,15.08s10.52-4.59,10.52-4.59-14,0-13.8-13c.13-8.3-2.92-11.45-5.16-12.64a14,14,0,0,0,2.18-3.34c3.22-.84,8.41-1.51,8.76,2.67.51,6.1-10.1,11.43-.79,18.67s15.77,2.79,15.77,2.79-8.27-1.5-2.2-10.38S96.45,71.05,87.81,72.89a7.26,7.26,0,0,1-2.68-.6c1.89-1.89,6-4.26,13.74-1.37,11.54,4.33,11.47,5.58,15.6,2.41S115,61.86,115,61.86Z"/></g></svg>